<mxfile host="app.diagrams.net" modified="2024-09-16T21:56:23.350Z" agent="Mozilla/5.0 (X11; Linux x86_64) AppleWebKit/537.36 (KHTML, like Gecko) Chrome/128.0.0.0 Safari/537.36" etag="6IL8T0DJ-lPoHcW8Jguu" version="24.3.1" type="device" pages="2">
  <diagram name="Page-1" id="sKsu4uQmQBV5w34mNyLB">
    <mxGraphModel dx="989" dy="546" grid="1" gridSize="10" guides="1" tooltips="1" connect="1" arrows="1" fold="1" page="1" pageScale="1" pageWidth="850" pageHeight="1100" math="0" shadow="0">
      <root>
        <mxCell id="0" />
        <mxCell id="1" parent="0" />
        <mxCell id="tRCOB0c4GEDpbGkmCyXr-2" value="" style="endArrow=none;dashed=1;html=1;rounded=0;" edge="1" parent="1">
          <mxGeometry width="50" height="50" relative="1" as="geometry">
            <mxPoint x="240" y="520" as="sourcePoint" />
            <mxPoint x="240" y="120" as="targetPoint" />
          </mxGeometry>
        </mxCell>
        <mxCell id="tRCOB0c4GEDpbGkmCyXr-3" value="" style="endArrow=none;dashed=1;html=1;rounded=0;" edge="1" parent="1">
          <mxGeometry width="50" height="50" relative="1" as="geometry">
            <mxPoint x="320" y="520" as="sourcePoint" />
            <mxPoint x="320" y="120" as="targetPoint" />
          </mxGeometry>
        </mxCell>
        <mxCell id="tRCOB0c4GEDpbGkmCyXr-4" value="" style="endArrow=none;dashed=1;html=1;rounded=0;" edge="1" parent="1">
          <mxGeometry width="50" height="50" relative="1" as="geometry">
            <mxPoint x="400" y="520" as="sourcePoint" />
            <mxPoint x="400" y="120" as="targetPoint" />
          </mxGeometry>
        </mxCell>
        <mxCell id="tRCOB0c4GEDpbGkmCyXr-5" value="" style="endArrow=none;dashed=1;html=1;rounded=0;" edge="1" parent="1">
          <mxGeometry width="50" height="50" relative="1" as="geometry">
            <mxPoint x="480" y="520" as="sourcePoint" />
            <mxPoint x="480" y="120" as="targetPoint" />
          </mxGeometry>
        </mxCell>
        <mxCell id="tRCOB0c4GEDpbGkmCyXr-6" value="" style="endArrow=none;dashed=1;html=1;rounded=0;" edge="1" parent="1">
          <mxGeometry width="50" height="50" relative="1" as="geometry">
            <mxPoint x="560" y="520" as="sourcePoint" />
            <mxPoint x="560" y="120" as="targetPoint" />
          </mxGeometry>
        </mxCell>
        <mxCell id="tRCOB0c4GEDpbGkmCyXr-8" value="&lt;font style=&quot;font-size: 14px;&quot;&gt;k&lt;sub&gt;i&lt;/sub&gt;&lt;/font&gt;" style="text;html=1;align=center;verticalAlign=middle;resizable=0;points=[];autosize=1;strokeColor=none;fillColor=none;" vertex="1" parent="1">
          <mxGeometry x="180" y="290" width="30" height="30" as="geometry" />
        </mxCell>
        <mxCell id="tRCOB0c4GEDpbGkmCyXr-10" value="&lt;font style=&quot;font-size: 14px;&quot;&gt;σ&lt;sub&gt;1&lt;/sub&gt;(w&lt;sub&gt;i-2&lt;/sub&gt;)&lt;sub&gt;&amp;nbsp;&lt;/sub&gt;&lt;/font&gt;" style="text;html=1;align=center;verticalAlign=middle;resizable=0;points=[];autosize=1;strokeColor=none;fillColor=none;" vertex="1" parent="1">
          <mxGeometry x="160" y="130" width="70" height="30" as="geometry" />
        </mxCell>
        <mxCell id="tRCOB0c4GEDpbGkmCyXr-11" value="&lt;font style=&quot;font-size: 14px;&quot;&gt;h&lt;/font&gt;" style="text;html=1;align=center;verticalAlign=middle;resizable=0;points=[];autosize=1;strokeColor=none;fillColor=none;" vertex="1" parent="1">
          <mxGeometry x="180" y="330" width="30" height="30" as="geometry" />
        </mxCell>
        <mxCell id="tRCOB0c4GEDpbGkmCyXr-12" value="&lt;font style=&quot;font-size: 14px;&quot;&gt;ch (e, f, g)&lt;/font&gt;" style="text;html=1;align=center;verticalAlign=middle;resizable=0;points=[];autosize=1;strokeColor=none;fillColor=none;" vertex="1" parent="1">
          <mxGeometry x="155" y="370" width="80" height="30" as="geometry" />
        </mxCell>
        <mxCell id="tRCOB0c4GEDpbGkmCyXr-13" value="&lt;span style=&quot;color: rgb(32, 33, 34); font-family: sans-serif; text-align: start; text-wrap: wrap; background-color: rgb(255, 255, 255); animation-delay: -0.01ms !important; animation-duration: 0.01ms !important; animation-iteration-count: 1 !important; scroll-behavior: auto !important; transition-duration: 0ms !important;&quot;&gt;&lt;font style=&quot;font-size: 12px;&quot;&gt;Σ&lt;sub&gt;1&lt;/sub&gt;&lt;/font&gt;&lt;/span&gt;&lt;span style=&quot;background-color: rgb(255, 255, 255); color: rgb(32, 33, 34); font-family: sans-serif; text-align: start; text-wrap: wrap;&quot;&gt;(e)&lt;/span&gt;" style="text;html=1;align=center;verticalAlign=middle;resizable=0;points=[];autosize=1;strokeColor=none;fillColor=none;" vertex="1" parent="1">
          <mxGeometry x="170" y="410" width="50" height="30" as="geometry" />
        </mxCell>
        <mxCell id="tRCOB0c4GEDpbGkmCyXr-14" value="&lt;span style=&quot;color: rgb(32, 33, 34); font-family: sans-serif; text-align: start; text-wrap: wrap; background-color: rgb(255, 255, 255); animation-delay: -0.01ms !important; animation-duration: 0.01ms !important; animation-iteration-count: 1 !important; scroll-behavior: auto !important; transition-duration: 0ms !important;&quot;&gt;&lt;font style=&quot;font-size: 12px;&quot;&gt;Σ&lt;sub&gt;0&lt;/sub&gt;&lt;/font&gt;&lt;/span&gt;&lt;span style=&quot;background-color: rgb(255, 255, 255); color: rgb(32, 33, 34); font-family: sans-serif; text-align: start; text-wrap: wrap;&quot;&gt;(a)&lt;/span&gt;" style="text;html=1;align=center;verticalAlign=middle;resizable=0;points=[];autosize=1;strokeColor=none;fillColor=none;" vertex="1" parent="1">
          <mxGeometry x="175" y="490" width="50" height="30" as="geometry" />
        </mxCell>
        <mxCell id="tRCOB0c4GEDpbGkmCyXr-15" value="&lt;font style=&quot;font-size: 14px;&quot;&gt;σ&lt;sub&gt;0&lt;/sub&gt;(w&lt;sub&gt;i-15&lt;/sub&gt;)&lt;sub&gt;&amp;nbsp;&lt;/sub&gt;&lt;/font&gt;" style="text;html=1;align=center;verticalAlign=middle;resizable=0;points=[];autosize=1;strokeColor=none;fillColor=none;" vertex="1" parent="1">
          <mxGeometry x="155" y="170" width="80" height="30" as="geometry" />
        </mxCell>
        <mxCell id="tRCOB0c4GEDpbGkmCyXr-16" value="&lt;font style=&quot;font-size: 14px;&quot;&gt;w&lt;sub&gt;i-16&lt;/sub&gt;&lt;/font&gt;" style="text;html=1;align=center;verticalAlign=middle;resizable=0;points=[];autosize=1;strokeColor=none;fillColor=none;" vertex="1" parent="1">
          <mxGeometry x="170" y="210" width="50" height="30" as="geometry" />
        </mxCell>
        <mxCell id="tRCOB0c4GEDpbGkmCyXr-17" value="&lt;font style=&quot;font-size: 14px;&quot;&gt;w&lt;sub&gt;i-7&lt;/sub&gt;&lt;/font&gt;" style="text;html=1;align=center;verticalAlign=middle;resizable=0;points=[];autosize=1;strokeColor=none;fillColor=none;" vertex="1" parent="1">
          <mxGeometry x="170" y="250" width="50" height="30" as="geometry" />
        </mxCell>
        <mxCell id="tRCOB0c4GEDpbGkmCyXr-18" value="&lt;font style=&quot;font-size: 14px;&quot;&gt;maj (a, b, c)&lt;/font&gt;" style="text;html=1;align=center;verticalAlign=middle;resizable=0;points=[];autosize=1;strokeColor=none;fillColor=none;" vertex="1" parent="1">
          <mxGeometry x="150" y="450" width="90" height="30" as="geometry" />
        </mxCell>
        <mxCell id="tRCOB0c4GEDpbGkmCyXr-19" value="" style="endArrow=classic;html=1;rounded=0;exitX=1.031;exitY=0.519;exitDx=0;exitDy=0;exitPerimeter=0;" edge="1" parent="1" source="tRCOB0c4GEDpbGkmCyXr-10">
          <mxGeometry width="50" height="50" relative="1" as="geometry">
            <mxPoint x="270" y="170" as="sourcePoint" />
            <mxPoint x="260" y="146" as="targetPoint" />
            <Array as="points">
              <mxPoint x="240" y="146" />
            </Array>
          </mxGeometry>
        </mxCell>
        <mxCell id="tRCOB0c4GEDpbGkmCyXr-20" value="Transforms" style="text;html=1;align=center;verticalAlign=middle;resizable=0;points=[];autosize=1;strokeColor=none;fillColor=none;" vertex="1" parent="1">
          <mxGeometry x="160" y="90" width="80" height="30" as="geometry" />
        </mxCell>
        <mxCell id="tRCOB0c4GEDpbGkmCyXr-21" value="Add 1" style="text;html=1;align=center;verticalAlign=middle;resizable=0;points=[];autosize=1;strokeColor=none;fillColor=none;" vertex="1" parent="1">
          <mxGeometry x="255" y="90" width="50" height="30" as="geometry" />
        </mxCell>
        <mxCell id="tRCOB0c4GEDpbGkmCyXr-22" value="Add 2" style="text;html=1;align=center;verticalAlign=middle;resizable=0;points=[];autosize=1;strokeColor=none;fillColor=none;" vertex="1" parent="1">
          <mxGeometry x="337" y="90" width="50" height="30" as="geometry" />
        </mxCell>
        <mxCell id="tRCOB0c4GEDpbGkmCyXr-23" value="Add 3" style="text;html=1;align=center;verticalAlign=middle;resizable=0;points=[];autosize=1;strokeColor=none;fillColor=none;" vertex="1" parent="1">
          <mxGeometry x="415" y="90" width="50" height="30" as="geometry" />
        </mxCell>
      </root>
    </mxGraphModel>
  </diagram>
  <diagram id="rBDrp9aEg2giu33sLny9" name="Page-2">
    <mxGraphModel dx="1195" dy="660" grid="1" gridSize="10" guides="1" tooltips="1" connect="1" arrows="1" fold="1" page="1" pageScale="1" pageWidth="850" pageHeight="1100" math="0" shadow="0">
      <root>
        <mxCell id="0" />
        <mxCell id="1" parent="0" />
        <mxCell id="AOnMPZiWM5nwUtfDkvDi-2" value="" style="rounded=0;whiteSpace=wrap;html=1;" vertex="1" parent="1">
          <mxGeometry x="280" y="140" width="20" height="440" as="geometry" />
        </mxCell>
        <mxCell id="AOnMPZiWM5nwUtfDkvDi-3" value="&lt;span style=&quot;font-size: 14px; text-wrap: nowrap;&quot;&gt;σ&lt;/span&gt;&lt;sub style=&quot;text-wrap: nowrap;&quot;&gt;1&lt;/sub&gt;" style="rounded=0;whiteSpace=wrap;html=1;" vertex="1" parent="1">
          <mxGeometry x="200" y="160" width="40" height="40" as="geometry" />
        </mxCell>
        <mxCell id="OlE5BqhoRq7jmSSQLnq1-1" value="&lt;span style=&quot;text-wrap: nowrap; font-size: 14px;&quot;&gt;σ&lt;/span&gt;&lt;span style=&quot;text-wrap: nowrap; font-size: 10px;&quot;&gt;&lt;sub&gt;0&lt;/sub&gt;&lt;/span&gt;" style="rounded=0;whiteSpace=wrap;html=1;" vertex="1" parent="1">
          <mxGeometry x="200" y="200" width="40" height="40" as="geometry" />
        </mxCell>
        <mxCell id="OlE5BqhoRq7jmSSQLnq1-2" value="&lt;span style=&quot;font-size: 14px; text-wrap: nowrap;&quot;&gt;k&lt;/span&gt;" style="rounded=0;whiteSpace=wrap;html=1;" vertex="1" parent="1">
          <mxGeometry x="200" y="320" width="40" height="40" as="geometry" />
        </mxCell>
        <mxCell id="OlE5BqhoRq7jmSSQLnq1-3" value="&lt;span style=&quot;font-size: 14px; text-wrap: nowrap;&quot;&gt;ch&lt;/span&gt;" style="rounded=0;whiteSpace=wrap;html=1;" vertex="1" parent="1">
          <mxGeometry x="200" y="400" width="40" height="40" as="geometry" />
        </mxCell>
        <mxCell id="OlE5BqhoRq7jmSSQLnq1-4" value="&lt;span style=&quot;color: rgb(32, 33, 34); font-family: sans-serif; text-align: start; background-color: rgb(255, 255, 255);&quot;&gt;Σ&lt;/span&gt;&lt;sub style=&quot;color: rgb(32, 33, 34); font-family: sans-serif; text-align: start; background-color: rgb(255, 255, 255);&quot;&gt;1&lt;/sub&gt;" style="rounded=0;whiteSpace=wrap;html=1;" vertex="1" parent="1">
          <mxGeometry x="200" y="440" width="40" height="40" as="geometry" />
        </mxCell>
        <mxCell id="OlE5BqhoRq7jmSSQLnq1-5" value="&lt;span style=&quot;font-size: 14px; text-wrap: nowrap;&quot;&gt;maj&lt;/span&gt;" style="rounded=0;whiteSpace=wrap;html=1;" vertex="1" parent="1">
          <mxGeometry x="200" y="480" width="40" height="40" as="geometry" />
        </mxCell>
        <mxCell id="25gt6m6BQNPreK_I1BEk-1" value="&lt;span style=&quot;color: rgb(32, 33, 34); font-family: sans-serif; text-align: start; background-color: rgb(255, 255, 255);&quot;&gt;Σ&lt;/span&gt;&lt;sub style=&quot;color: rgb(32, 33, 34); font-family: sans-serif; text-align: start; background-color: rgb(255, 255, 255);&quot;&gt;0&lt;/sub&gt;" style="rounded=0;whiteSpace=wrap;html=1;" vertex="1" parent="1">
          <mxGeometry x="200" y="520" width="40" height="40" as="geometry" />
        </mxCell>
        <mxCell id="765iPjxX5ut2W_0Jc0lx-14" style="edgeStyle=orthogonalEdgeStyle;rounded=0;orthogonalLoop=1;jettySize=auto;html=1;entryX=0;entryY=0.5;entryDx=0;entryDy=0;" edge="1" parent="1" source="5i32dRRKh9WgX2sIEwCx-2" target="OlE5BqhoRq7jmSSQLnq1-2">
          <mxGeometry relative="1" as="geometry" />
        </mxCell>
        <mxCell id="5i32dRRKh9WgX2sIEwCx-2" value="&lt;span style=&quot;font-size: 14px;&quot;&gt;counter&lt;/span&gt;" style="text;html=1;align=center;verticalAlign=middle;resizable=0;points=[];autosize=1;strokeColor=none;fillColor=none;" vertex="1" parent="1">
          <mxGeometry x="111" y="325" width="70" height="30" as="geometry" />
        </mxCell>
        <mxCell id="765iPjxX5ut2W_0Jc0lx-1" style="edgeStyle=orthogonalEdgeStyle;rounded=0;orthogonalLoop=1;jettySize=auto;html=1;entryX=0;entryY=0.5;entryDx=0;entryDy=0;" edge="1" parent="1" source="5i32dRRKh9WgX2sIEwCx-3" target="AOnMPZiWM5nwUtfDkvDi-3">
          <mxGeometry relative="1" as="geometry" />
        </mxCell>
        <mxCell id="5i32dRRKh9WgX2sIEwCx-3" value="&lt;font style=&quot;font-size: 14px;&quot;&gt;w&lt;sub&gt;i-2&lt;/sub&gt;&lt;sub&gt;&amp;nbsp;&lt;/sub&gt;&lt;/font&gt;" style="text;html=1;align=center;verticalAlign=middle;resizable=0;points=[];autosize=1;strokeColor=none;fillColor=none;" vertex="1" parent="1">
          <mxGeometry x="120" y="165" width="50" height="30" as="geometry" />
        </mxCell>
        <mxCell id="5i32dRRKh9WgX2sIEwCx-4" value="&lt;font style=&quot;font-size: 14px;&quot;&gt;h&lt;/font&gt;" style="text;html=1;align=center;verticalAlign=middle;resizable=0;points=[];autosize=1;strokeColor=none;fillColor=none;" vertex="1" parent="1">
          <mxGeometry x="130" y="364" width="30" height="30" as="geometry" />
        </mxCell>
        <mxCell id="765iPjxX5ut2W_0Jc0lx-18" style="edgeStyle=orthogonalEdgeStyle;rounded=0;orthogonalLoop=1;jettySize=auto;html=1;entryX=0;entryY=0.5;entryDx=0;entryDy=0;" edge="1" parent="1" source="5i32dRRKh9WgX2sIEwCx-5" target="OlE5BqhoRq7jmSSQLnq1-3">
          <mxGeometry relative="1" as="geometry" />
        </mxCell>
        <mxCell id="5i32dRRKh9WgX2sIEwCx-5" value="&lt;font style=&quot;font-size: 14px;&quot;&gt;(e, f, g)&lt;/font&gt;" style="text;html=1;align=center;verticalAlign=middle;resizable=0;points=[];autosize=1;strokeColor=none;fillColor=none;" vertex="1" parent="1">
          <mxGeometry x="113" y="405" width="60" height="30" as="geometry" />
        </mxCell>
        <mxCell id="765iPjxX5ut2W_0Jc0lx-19" style="edgeStyle=orthogonalEdgeStyle;rounded=0;orthogonalLoop=1;jettySize=auto;html=1;entryX=0;entryY=0.5;entryDx=0;entryDy=0;" edge="1" parent="1" source="5i32dRRKh9WgX2sIEwCx-6" target="OlE5BqhoRq7jmSSQLnq1-4">
          <mxGeometry relative="1" as="geometry" />
        </mxCell>
        <mxCell id="5i32dRRKh9WgX2sIEwCx-6" value="&lt;span style=&quot;background-color: rgb(255, 255, 255); color: rgb(32, 33, 34); font-family: sans-serif; text-align: start; text-wrap: wrap;&quot;&gt;e&lt;/span&gt;" style="text;html=1;align=center;verticalAlign=middle;resizable=0;points=[];autosize=1;strokeColor=none;fillColor=none;" vertex="1" parent="1">
          <mxGeometry x="129" y="445" width="30" height="30" as="geometry" />
        </mxCell>
        <mxCell id="765iPjxX5ut2W_0Jc0lx-21" style="edgeStyle=orthogonalEdgeStyle;rounded=0;orthogonalLoop=1;jettySize=auto;html=1;entryX=0;entryY=0.5;entryDx=0;entryDy=0;" edge="1" parent="1" source="5i32dRRKh9WgX2sIEwCx-7" target="25gt6m6BQNPreK_I1BEk-1">
          <mxGeometry relative="1" as="geometry" />
        </mxCell>
        <mxCell id="5i32dRRKh9WgX2sIEwCx-7" value="&lt;div style=&quot;text-align: start;&quot;&gt;&lt;font face=&quot;sans-serif&quot; color=&quot;#202122&quot;&gt;&lt;span style=&quot;text-wrap: wrap; background-color: rgb(255, 255, 255);&quot;&gt;a&lt;/span&gt;&lt;/font&gt;&lt;/div&gt;" style="text;html=1;align=center;verticalAlign=middle;resizable=0;points=[];autosize=1;strokeColor=none;fillColor=none;" vertex="1" parent="1">
          <mxGeometry x="129" y="525" width="30" height="30" as="geometry" />
        </mxCell>
        <mxCell id="765iPjxX5ut2W_0Jc0lx-3" style="edgeStyle=orthogonalEdgeStyle;rounded=0;orthogonalLoop=1;jettySize=auto;html=1;entryX=0;entryY=0.5;entryDx=0;entryDy=0;" edge="1" parent="1" source="5i32dRRKh9WgX2sIEwCx-8" target="OlE5BqhoRq7jmSSQLnq1-1">
          <mxGeometry relative="1" as="geometry" />
        </mxCell>
        <mxCell id="5i32dRRKh9WgX2sIEwCx-8" value="&lt;font style=&quot;font-size: 14px;&quot;&gt;w&lt;sub&gt;i-15&lt;/sub&gt;&lt;/font&gt;" style="text;html=1;align=center;verticalAlign=middle;resizable=0;points=[];autosize=1;strokeColor=none;fillColor=none;" vertex="1" parent="1">
          <mxGeometry x="120" y="205" width="50" height="30" as="geometry" />
        </mxCell>
        <mxCell id="765iPjxX5ut2W_0Jc0lx-8" style="edgeStyle=orthogonalEdgeStyle;rounded=0;orthogonalLoop=1;jettySize=auto;html=1;entryX=0;entryY=0;entryDx=0;entryDy=0;" edge="1" parent="1" source="5i32dRRKh9WgX2sIEwCx-9" target="765iPjxX5ut2W_0Jc0lx-7">
          <mxGeometry relative="1" as="geometry">
            <Array as="points">
              <mxPoint x="190" y="259" />
              <mxPoint x="190" y="269" />
            </Array>
          </mxGeometry>
        </mxCell>
        <mxCell id="5i32dRRKh9WgX2sIEwCx-9" value="&lt;font style=&quot;font-size: 14px;&quot;&gt;w&lt;sub&gt;i-16&lt;/sub&gt;&lt;/font&gt;" style="text;html=1;align=center;verticalAlign=middle;resizable=0;points=[];autosize=1;strokeColor=none;fillColor=none;" vertex="1" parent="1">
          <mxGeometry x="121" y="243" width="50" height="30" as="geometry" />
        </mxCell>
        <mxCell id="765iPjxX5ut2W_0Jc0lx-9" style="edgeStyle=orthogonalEdgeStyle;rounded=0;orthogonalLoop=1;jettySize=auto;html=1;entryX=0;entryY=1;entryDx=0;entryDy=0;" edge="1" parent="1" source="5i32dRRKh9WgX2sIEwCx-10" target="765iPjxX5ut2W_0Jc0lx-7">
          <mxGeometry relative="1" as="geometry">
            <Array as="points">
              <mxPoint x="190" y="300" />
              <mxPoint x="190" y="291" />
            </Array>
          </mxGeometry>
        </mxCell>
        <mxCell id="5i32dRRKh9WgX2sIEwCx-10" value="&lt;font style=&quot;font-size: 14px;&quot;&gt;w&lt;sub&gt;i-7&lt;/sub&gt;&lt;/font&gt;" style="text;html=1;align=center;verticalAlign=middle;resizable=0;points=[];autosize=1;strokeColor=none;fillColor=none;" vertex="1" parent="1">
          <mxGeometry x="120" y="284" width="50" height="30" as="geometry" />
        </mxCell>
        <mxCell id="765iPjxX5ut2W_0Jc0lx-20" style="edgeStyle=orthogonalEdgeStyle;rounded=0;orthogonalLoop=1;jettySize=auto;html=1;entryX=0;entryY=0.5;entryDx=0;entryDy=0;" edge="1" parent="1" source="5i32dRRKh9WgX2sIEwCx-11" target="OlE5BqhoRq7jmSSQLnq1-5">
          <mxGeometry relative="1" as="geometry" />
        </mxCell>
        <mxCell id="5i32dRRKh9WgX2sIEwCx-11" value="&lt;font style=&quot;font-size: 14px;&quot;&gt;&amp;nbsp;(a, b, c)&lt;/font&gt;" style="text;html=1;align=center;verticalAlign=middle;resizable=0;points=[];autosize=1;strokeColor=none;fillColor=none;" vertex="1" parent="1">
          <mxGeometry x="109" y="485" width="70" height="30" as="geometry" />
        </mxCell>
        <mxCell id="765iPjxX5ut2W_0Jc0lx-2" style="edgeStyle=orthogonalEdgeStyle;rounded=0;orthogonalLoop=1;jettySize=auto;html=1;exitX=1;exitY=0.5;exitDx=0;exitDy=0;entryX=0.079;entryY=0.093;entryDx=0;entryDy=0;entryPerimeter=0;" edge="1" parent="1" source="AOnMPZiWM5nwUtfDkvDi-3" target="AOnMPZiWM5nwUtfDkvDi-2">
          <mxGeometry relative="1" as="geometry" />
        </mxCell>
        <mxCell id="765iPjxX5ut2W_0Jc0lx-4" style="edgeStyle=orthogonalEdgeStyle;rounded=0;orthogonalLoop=1;jettySize=auto;html=1;exitX=1;exitY=0.5;exitDx=0;exitDy=0;entryX=0.007;entryY=0.18;entryDx=0;entryDy=0;entryPerimeter=0;" edge="1" parent="1" source="OlE5BqhoRq7jmSSQLnq1-1" target="AOnMPZiWM5nwUtfDkvDi-2">
          <mxGeometry relative="1" as="geometry" />
        </mxCell>
        <mxCell id="765iPjxX5ut2W_0Jc0lx-7" value="+" style="ellipse;whiteSpace=wrap;html=1;" vertex="1" parent="1">
          <mxGeometry x="204" y="265" width="30" height="30" as="geometry" />
        </mxCell>
        <mxCell id="765iPjxX5ut2W_0Jc0lx-10" style="edgeStyle=orthogonalEdgeStyle;rounded=0;orthogonalLoop=1;jettySize=auto;html=1;entryX=-0.046;entryY=0.318;entryDx=0;entryDy=0;entryPerimeter=0;" edge="1" parent="1" source="765iPjxX5ut2W_0Jc0lx-7" target="AOnMPZiWM5nwUtfDkvDi-2">
          <mxGeometry relative="1" as="geometry" />
        </mxCell>
        <mxCell id="765iPjxX5ut2W_0Jc0lx-15" style="edgeStyle=orthogonalEdgeStyle;rounded=0;orthogonalLoop=1;jettySize=auto;html=1;entryX=-0.011;entryY=0.455;entryDx=0;entryDy=0;entryPerimeter=0;" edge="1" parent="1" source="OlE5BqhoRq7jmSSQLnq1-2" target="AOnMPZiWM5nwUtfDkvDi-2">
          <mxGeometry relative="1" as="geometry" />
        </mxCell>
        <mxCell id="765iPjxX5ut2W_0Jc0lx-16" style="edgeStyle=orthogonalEdgeStyle;rounded=0;orthogonalLoop=1;jettySize=auto;html=1;entryX=-0.053;entryY=0.545;entryDx=0;entryDy=0;entryPerimeter=0;" edge="1" parent="1" source="5i32dRRKh9WgX2sIEwCx-4" target="AOnMPZiWM5nwUtfDkvDi-2">
          <mxGeometry relative="1" as="geometry" />
        </mxCell>
        <mxCell id="765iPjxX5ut2W_0Jc0lx-22" value="+" style="ellipse;whiteSpace=wrap;html=1;" vertex="1" parent="1">
          <mxGeometry x="347" y="183" width="30" height="30" as="geometry" />
        </mxCell>
        <mxCell id="765iPjxX5ut2W_0Jc0lx-23" style="edgeStyle=orthogonalEdgeStyle;rounded=0;orthogonalLoop=1;jettySize=auto;html=1;exitX=0;exitY=0;exitDx=0;exitDy=0;entryX=0.994;entryY=0.089;entryDx=0;entryDy=0;entryPerimeter=0;startArrow=classic;startFill=1;endArrow=none;endFill=0;" edge="1" parent="1" source="765iPjxX5ut2W_0Jc0lx-22" target="AOnMPZiWM5nwUtfDkvDi-2">
          <mxGeometry relative="1" as="geometry" />
        </mxCell>
        <mxCell id="765iPjxX5ut2W_0Jc0lx-24" style="edgeStyle=orthogonalEdgeStyle;rounded=0;orthogonalLoop=1;jettySize=auto;html=1;exitX=0;exitY=1;exitDx=0;exitDy=0;entryX=1.006;entryY=0.179;entryDx=0;entryDy=0;entryPerimeter=0;startArrow=classic;startFill=1;endArrow=none;endFill=0;" edge="1" parent="1" source="765iPjxX5ut2W_0Jc0lx-22" target="AOnMPZiWM5nwUtfDkvDi-2">
          <mxGeometry relative="1" as="geometry" />
        </mxCell>
        <mxCell id="765iPjxX5ut2W_0Jc0lx-25" value="" style="shape=trapezoid;perimeter=trapezoidPerimeter;whiteSpace=wrap;html=1;fixedSize=1;rotation=90;" vertex="1" parent="1">
          <mxGeometry x="340" y="253" width="70" height="20" as="geometry" />
        </mxCell>
        <mxCell id="765iPjxX5ut2W_0Jc0lx-27" value="&lt;font style=&quot;font-size: 14px;&quot;&gt;w&lt;/font&gt;&lt;font style=&quot;font-size: 11.6667px;&quot;&gt;&lt;sub&gt;bypass&lt;/sub&gt;&lt;/font&gt;" style="text;html=1;align=center;verticalAlign=middle;resizable=0;points=[];autosize=1;strokeColor=none;fillColor=none;" vertex="1" parent="1">
          <mxGeometry x="292" y="226" width="60" height="30" as="geometry" />
        </mxCell>
        <mxCell id="765iPjxX5ut2W_0Jc0lx-30" value="" style="endArrow=classic;html=1;rounded=0;exitX=1.023;exitY=0.318;exitDx=0;exitDy=0;exitPerimeter=0;entryX=0.75;entryY=1;entryDx=0;entryDy=0;" edge="1" parent="1" source="AOnMPZiWM5nwUtfDkvDi-2" target="765iPjxX5ut2W_0Jc0lx-25">
          <mxGeometry width="50" height="50" relative="1" as="geometry">
            <mxPoint x="310" y="250" as="sourcePoint" />
            <mxPoint x="360" y="200" as="targetPoint" />
          </mxGeometry>
        </mxCell>
        <mxCell id="765iPjxX5ut2W_0Jc0lx-31" value="" style="endArrow=classic;html=1;rounded=0;entryX=0.25;entryY=1;entryDx=0;entryDy=0;" edge="1" parent="1" target="765iPjxX5ut2W_0Jc0lx-25">
          <mxGeometry width="50" height="50" relative="1" as="geometry">
            <mxPoint x="346" y="245" as="sourcePoint" />
            <mxPoint x="360" y="230" as="targetPoint" />
          </mxGeometry>
        </mxCell>
        <mxCell id="765iPjxX5ut2W_0Jc0lx-51" style="edgeStyle=orthogonalEdgeStyle;rounded=0;orthogonalLoop=1;jettySize=auto;html=1;" edge="1" parent="1" source="765iPjxX5ut2W_0Jc0lx-32">
          <mxGeometry relative="1" as="geometry">
            <mxPoint x="420.80952380952385" y="359.19047619047615" as="targetPoint" />
          </mxGeometry>
        </mxCell>
        <mxCell id="765iPjxX5ut2W_0Jc0lx-32" value="+" style="ellipse;whiteSpace=wrap;html=1;" vertex="1" parent="1">
          <mxGeometry x="347" y="344" width="30" height="30" as="geometry" />
        </mxCell>
        <mxCell id="765iPjxX5ut2W_0Jc0lx-33" style="edgeStyle=orthogonalEdgeStyle;rounded=0;orthogonalLoop=1;jettySize=auto;html=1;exitX=0;exitY=0;exitDx=0;exitDy=0;entryX=0.994;entryY=0.089;entryDx=0;entryDy=0;entryPerimeter=0;startArrow=classic;startFill=1;endArrow=none;endFill=0;" edge="1" parent="1" source="765iPjxX5ut2W_0Jc0lx-32">
          <mxGeometry relative="1" as="geometry">
            <mxPoint x="300" y="340" as="targetPoint" />
            <Array as="points">
              <mxPoint x="324" y="348" />
              <mxPoint x="324" y="340" />
            </Array>
          </mxGeometry>
        </mxCell>
        <mxCell id="765iPjxX5ut2W_0Jc0lx-34" style="edgeStyle=orthogonalEdgeStyle;rounded=0;orthogonalLoop=1;jettySize=auto;html=1;exitX=0;exitY=1;exitDx=0;exitDy=0;entryX=1.006;entryY=0.179;entryDx=0;entryDy=0;entryPerimeter=0;startArrow=classic;startFill=1;endArrow=none;endFill=0;" edge="1" parent="1" source="765iPjxX5ut2W_0Jc0lx-32">
          <mxGeometry relative="1" as="geometry">
            <mxPoint x="300" y="380" as="targetPoint" />
            <Array as="points">
              <mxPoint x="324" y="370" />
              <mxPoint x="324" y="380" />
            </Array>
          </mxGeometry>
        </mxCell>
        <mxCell id="765iPjxX5ut2W_0Jc0lx-35" style="edgeStyle=orthogonalEdgeStyle;rounded=0;orthogonalLoop=1;jettySize=auto;html=1;entryX=-0.02;entryY=0.637;entryDx=0;entryDy=0;entryPerimeter=0;" edge="1" parent="1" source="OlE5BqhoRq7jmSSQLnq1-3" target="AOnMPZiWM5nwUtfDkvDi-2">
          <mxGeometry relative="1" as="geometry" />
        </mxCell>
        <mxCell id="765iPjxX5ut2W_0Jc0lx-36" style="edgeStyle=orthogonalEdgeStyle;rounded=0;orthogonalLoop=1;jettySize=auto;html=1;exitX=1;exitY=0.5;exitDx=0;exitDy=0;entryX=0.01;entryY=0.727;entryDx=0;entryDy=0;entryPerimeter=0;" edge="1" parent="1" source="OlE5BqhoRq7jmSSQLnq1-4" target="AOnMPZiWM5nwUtfDkvDi-2">
          <mxGeometry relative="1" as="geometry" />
        </mxCell>
        <mxCell id="765iPjxX5ut2W_0Jc0lx-37" style="edgeStyle=orthogonalEdgeStyle;rounded=0;orthogonalLoop=1;jettySize=auto;html=1;exitX=1;exitY=0.5;exitDx=0;exitDy=0;entryX=-0.07;entryY=0.818;entryDx=0;entryDy=0;entryPerimeter=0;" edge="1" parent="1" source="OlE5BqhoRq7jmSSQLnq1-5" target="AOnMPZiWM5nwUtfDkvDi-2">
          <mxGeometry relative="1" as="geometry" />
        </mxCell>
        <mxCell id="765iPjxX5ut2W_0Jc0lx-38" style="edgeStyle=orthogonalEdgeStyle;rounded=0;orthogonalLoop=1;jettySize=auto;html=1;entryX=0;entryY=0.91;entryDx=0;entryDy=0;entryPerimeter=0;" edge="1" parent="1" source="25gt6m6BQNPreK_I1BEk-1" target="AOnMPZiWM5nwUtfDkvDi-2">
          <mxGeometry relative="1" as="geometry" />
        </mxCell>
        <mxCell id="765iPjxX5ut2W_0Jc0lx-42" value="+" style="ellipse;whiteSpace=wrap;html=1;" vertex="1" parent="1">
          <mxGeometry x="347" y="424" width="30" height="30" as="geometry" />
        </mxCell>
        <mxCell id="765iPjxX5ut2W_0Jc0lx-43" style="edgeStyle=orthogonalEdgeStyle;rounded=0;orthogonalLoop=1;jettySize=auto;html=1;exitX=0;exitY=0;exitDx=0;exitDy=0;entryX=0.994;entryY=0.089;entryDx=0;entryDy=0;entryPerimeter=0;startArrow=classic;startFill=1;endArrow=none;endFill=0;" edge="1" parent="1" source="765iPjxX5ut2W_0Jc0lx-42">
          <mxGeometry relative="1" as="geometry">
            <mxPoint x="300" y="420" as="targetPoint" />
            <Array as="points">
              <mxPoint x="324" y="428" />
              <mxPoint x="324" y="420" />
            </Array>
          </mxGeometry>
        </mxCell>
        <mxCell id="765iPjxX5ut2W_0Jc0lx-44" style="edgeStyle=orthogonalEdgeStyle;rounded=0;orthogonalLoop=1;jettySize=auto;html=1;exitX=0;exitY=1;exitDx=0;exitDy=0;entryX=1.006;entryY=0.179;entryDx=0;entryDy=0;entryPerimeter=0;startArrow=classic;startFill=1;endArrow=none;endFill=0;" edge="1" parent="1" source="765iPjxX5ut2W_0Jc0lx-42">
          <mxGeometry relative="1" as="geometry">
            <mxPoint x="300" y="460" as="targetPoint" />
            <Array as="points">
              <mxPoint x="324" y="450" />
              <mxPoint x="324" y="460" />
            </Array>
          </mxGeometry>
        </mxCell>
        <mxCell id="765iPjxX5ut2W_0Jc0lx-45" value="+" style="ellipse;whiteSpace=wrap;html=1;" vertex="1" parent="1">
          <mxGeometry x="347" y="504" width="30" height="30" as="geometry" />
        </mxCell>
        <mxCell id="765iPjxX5ut2W_0Jc0lx-46" style="edgeStyle=orthogonalEdgeStyle;rounded=0;orthogonalLoop=1;jettySize=auto;html=1;exitX=0;exitY=0;exitDx=0;exitDy=0;entryX=0.994;entryY=0.089;entryDx=0;entryDy=0;entryPerimeter=0;startArrow=classic;startFill=1;endArrow=none;endFill=0;" edge="1" parent="1" source="765iPjxX5ut2W_0Jc0lx-45">
          <mxGeometry relative="1" as="geometry">
            <mxPoint x="300" y="500" as="targetPoint" />
            <Array as="points">
              <mxPoint x="324" y="508" />
              <mxPoint x="324" y="500" />
            </Array>
          </mxGeometry>
        </mxCell>
        <mxCell id="765iPjxX5ut2W_0Jc0lx-47" style="edgeStyle=orthogonalEdgeStyle;rounded=0;orthogonalLoop=1;jettySize=auto;html=1;exitX=0;exitY=1;exitDx=0;exitDy=0;entryX=1.006;entryY=0.179;entryDx=0;entryDy=0;entryPerimeter=0;startArrow=classic;startFill=1;endArrow=none;endFill=0;" edge="1" parent="1" source="765iPjxX5ut2W_0Jc0lx-45">
          <mxGeometry relative="1" as="geometry">
            <mxPoint x="300" y="540" as="targetPoint" />
            <Array as="points">
              <mxPoint x="324" y="530" />
              <mxPoint x="324" y="540" />
            </Array>
          </mxGeometry>
        </mxCell>
        <mxCell id="765iPjxX5ut2W_0Jc0lx-48" value="" style="rounded=0;whiteSpace=wrap;html=1;" vertex="1" parent="1">
          <mxGeometry x="420" y="140" width="20" height="440" as="geometry" />
        </mxCell>
        <mxCell id="765iPjxX5ut2W_0Jc0lx-49" style="edgeStyle=orthogonalEdgeStyle;rounded=0;orthogonalLoop=1;jettySize=auto;html=1;entryX=0.005;entryY=0.132;entryDx=0;entryDy=0;entryPerimeter=0;" edge="1" parent="1" source="765iPjxX5ut2W_0Jc0lx-22" target="765iPjxX5ut2W_0Jc0lx-48">
          <mxGeometry relative="1" as="geometry" />
        </mxCell>
        <mxCell id="765iPjxX5ut2W_0Jc0lx-50" style="edgeStyle=orthogonalEdgeStyle;rounded=0;orthogonalLoop=1;jettySize=auto;html=1;exitX=0.5;exitY=0;exitDx=0;exitDy=0;entryX=-0.043;entryY=0.28;entryDx=0;entryDy=0;entryPerimeter=0;" edge="1" parent="1" source="765iPjxX5ut2W_0Jc0lx-25" target="765iPjxX5ut2W_0Jc0lx-48">
          <mxGeometry relative="1" as="geometry" />
        </mxCell>
        <mxCell id="765iPjxX5ut2W_0Jc0lx-52" style="edgeStyle=orthogonalEdgeStyle;rounded=0;orthogonalLoop=1;jettySize=auto;html=1;entryX=-0.09;entryY=0.68;entryDx=0;entryDy=0;entryPerimeter=0;" edge="1" parent="1" source="765iPjxX5ut2W_0Jc0lx-42" target="765iPjxX5ut2W_0Jc0lx-48">
          <mxGeometry relative="1" as="geometry" />
        </mxCell>
        <mxCell id="765iPjxX5ut2W_0Jc0lx-53" style="edgeStyle=orthogonalEdgeStyle;rounded=0;orthogonalLoop=1;jettySize=auto;html=1;entryX=-0.102;entryY=0.861;entryDx=0;entryDy=0;entryPerimeter=0;" edge="1" parent="1" source="765iPjxX5ut2W_0Jc0lx-45" target="765iPjxX5ut2W_0Jc0lx-48">
          <mxGeometry relative="1" as="geometry" />
        </mxCell>
        <mxCell id="765iPjxX5ut2W_0Jc0lx-54" value="+" style="ellipse;whiteSpace=wrap;html=1;" vertex="1" parent="1">
          <mxGeometry x="487" y="217" width="30" height="30" as="geometry" />
        </mxCell>
        <mxCell id="765iPjxX5ut2W_0Jc0lx-55" style="edgeStyle=orthogonalEdgeStyle;rounded=0;orthogonalLoop=1;jettySize=auto;html=1;exitX=0;exitY=0;exitDx=0;exitDy=0;entryX=0.994;entryY=0.089;entryDx=0;entryDy=0;entryPerimeter=0;startArrow=classic;startFill=1;endArrow=none;endFill=0;" edge="1" parent="1" source="765iPjxX5ut2W_0Jc0lx-54">
          <mxGeometry relative="1" as="geometry">
            <mxPoint x="440" y="213" as="targetPoint" />
            <Array as="points">
              <mxPoint x="464" y="221" />
              <mxPoint x="464" y="198" />
              <mxPoint x="440" y="198" />
            </Array>
          </mxGeometry>
        </mxCell>
        <mxCell id="765iPjxX5ut2W_0Jc0lx-56" style="edgeStyle=orthogonalEdgeStyle;rounded=0;orthogonalLoop=1;jettySize=auto;html=1;exitX=0;exitY=1;exitDx=0;exitDy=0;entryX=1.006;entryY=0.179;entryDx=0;entryDy=0;entryPerimeter=0;startArrow=classic;startFill=1;endArrow=none;endFill=0;" edge="1" parent="1" source="765iPjxX5ut2W_0Jc0lx-54">
          <mxGeometry relative="1" as="geometry">
            <mxPoint x="440" y="253" as="targetPoint" />
            <Array as="points">
              <mxPoint x="464" y="243" />
              <mxPoint x="464" y="263" />
              <mxPoint x="440" y="263" />
            </Array>
          </mxGeometry>
        </mxCell>
        <mxCell id="765iPjxX5ut2W_0Jc0lx-57" value="+" style="ellipse;whiteSpace=wrap;html=1;" vertex="1" parent="1">
          <mxGeometry x="487" y="387" width="30" height="30" as="geometry" />
        </mxCell>
        <mxCell id="765iPjxX5ut2W_0Jc0lx-58" style="edgeStyle=orthogonalEdgeStyle;rounded=0;orthogonalLoop=1;jettySize=auto;html=1;exitX=0;exitY=0;exitDx=0;exitDy=0;startArrow=classic;startFill=1;endArrow=none;endFill=0;" edge="1" parent="1" source="765iPjxX5ut2W_0Jc0lx-57">
          <mxGeometry relative="1" as="geometry">
            <mxPoint x="440" y="360" as="targetPoint" />
            <Array as="points">
              <mxPoint x="464" y="391" />
              <mxPoint x="464" y="360" />
              <mxPoint x="440" y="360" />
            </Array>
          </mxGeometry>
        </mxCell>
        <mxCell id="765iPjxX5ut2W_0Jc0lx-59" style="edgeStyle=orthogonalEdgeStyle;rounded=0;orthogonalLoop=1;jettySize=auto;html=1;exitX=0;exitY=1;exitDx=0;exitDy=0;startArrow=classic;startFill=1;endArrow=none;endFill=0;" edge="1" parent="1" source="765iPjxX5ut2W_0Jc0lx-57">
          <mxGeometry relative="1" as="geometry">
            <mxPoint x="440" y="440" as="targetPoint" />
            <Array as="points">
              <mxPoint x="464" y="413" />
              <mxPoint x="464" y="440" />
              <mxPoint x="440" y="440" />
            </Array>
          </mxGeometry>
        </mxCell>
        <mxCell id="765iPjxX5ut2W_0Jc0lx-60" value="" style="rounded=0;whiteSpace=wrap;html=1;" vertex="1" parent="1">
          <mxGeometry x="555" y="142" width="20" height="440" as="geometry" />
        </mxCell>
        <mxCell id="765iPjxX5ut2W_0Jc0lx-61" style="edgeStyle=orthogonalEdgeStyle;rounded=0;orthogonalLoop=1;jettySize=auto;html=1;entryX=0.057;entryY=0.204;entryDx=0;entryDy=0;entryPerimeter=0;" edge="1" parent="1" source="765iPjxX5ut2W_0Jc0lx-54" target="765iPjxX5ut2W_0Jc0lx-60">
          <mxGeometry relative="1" as="geometry" />
        </mxCell>
        <mxCell id="765iPjxX5ut2W_0Jc0lx-62" style="edgeStyle=orthogonalEdgeStyle;rounded=0;orthogonalLoop=1;jettySize=auto;html=1;exitX=1;exitY=0.5;exitDx=0;exitDy=0;entryX=0.014;entryY=0.589;entryDx=0;entryDy=0;entryPerimeter=0;" edge="1" parent="1" source="765iPjxX5ut2W_0Jc0lx-57" target="765iPjxX5ut2W_0Jc0lx-60">
          <mxGeometry relative="1" as="geometry" />
        </mxCell>
        <mxCell id="765iPjxX5ut2W_0Jc0lx-63" value="" style="endArrow=classic;html=1;rounded=0;exitX=1.01;exitY=0.861;exitDx=0;exitDy=0;exitPerimeter=0;entryX=0.01;entryY=0.857;entryDx=0;entryDy=0;entryPerimeter=0;" edge="1" parent="1" source="765iPjxX5ut2W_0Jc0lx-48" target="765iPjxX5ut2W_0Jc0lx-60">
          <mxGeometry width="50" height="50" relative="1" as="geometry">
            <mxPoint x="420" y="500" as="sourcePoint" />
            <mxPoint x="470" y="450" as="targetPoint" />
          </mxGeometry>
        </mxCell>
        <mxCell id="765iPjxX5ut2W_0Jc0lx-64" value="" style="rounded=0;whiteSpace=wrap;html=1;" vertex="1" parent="1">
          <mxGeometry x="690" y="142" width="20" height="440" as="geometry" />
        </mxCell>
        <mxCell id="765iPjxX5ut2W_0Jc0lx-66" value="+" style="ellipse;whiteSpace=wrap;html=1;" vertex="1" parent="1">
          <mxGeometry x="622" y="300" width="30" height="30" as="geometry" />
        </mxCell>
        <mxCell id="765iPjxX5ut2W_0Jc0lx-67" style="edgeStyle=orthogonalEdgeStyle;rounded=0;orthogonalLoop=1;jettySize=auto;html=1;exitX=0;exitY=0;exitDx=0;exitDy=0;entryX=0.994;entryY=0.089;entryDx=0;entryDy=0;entryPerimeter=0;startArrow=classic;startFill=1;endArrow=none;endFill=0;" edge="1" parent="1" source="765iPjxX5ut2W_0Jc0lx-66">
          <mxGeometry relative="1" as="geometry">
            <mxPoint x="575" y="288" as="targetPoint" />
            <Array as="points">
              <mxPoint x="599" y="304" />
              <mxPoint x="599" y="232" />
              <mxPoint x="575" y="232" />
            </Array>
          </mxGeometry>
        </mxCell>
        <mxCell id="765iPjxX5ut2W_0Jc0lx-68" style="edgeStyle=orthogonalEdgeStyle;rounded=0;orthogonalLoop=1;jettySize=auto;html=1;exitX=0;exitY=1;exitDx=0;exitDy=0;entryX=1.006;entryY=0.179;entryDx=0;entryDy=0;entryPerimeter=0;startArrow=classic;startFill=1;endArrow=none;endFill=0;" edge="1" parent="1" source="765iPjxX5ut2W_0Jc0lx-66">
          <mxGeometry relative="1" as="geometry">
            <mxPoint x="575" y="328" as="targetPoint" />
            <Array as="points">
              <mxPoint x="599" y="326" />
              <mxPoint x="599" y="400" />
              <mxPoint x="575" y="400" />
            </Array>
          </mxGeometry>
        </mxCell>
        <mxCell id="765iPjxX5ut2W_0Jc0lx-69" style="edgeStyle=orthogonalEdgeStyle;rounded=0;orthogonalLoop=1;jettySize=auto;html=1;entryX=0.001;entryY=0.392;entryDx=0;entryDy=0;entryPerimeter=0;" edge="1" parent="1" source="765iPjxX5ut2W_0Jc0lx-66" target="765iPjxX5ut2W_0Jc0lx-64">
          <mxGeometry relative="1" as="geometry">
            <mxPoint x="691" y="307" as="targetPoint" />
          </mxGeometry>
        </mxCell>
        <mxCell id="765iPjxX5ut2W_0Jc0lx-70" value="" style="endArrow=classic;html=1;rounded=0;exitX=1.01;exitY=0.861;exitDx=0;exitDy=0;exitPerimeter=0;entryX=0.01;entryY=0.857;entryDx=0;entryDy=0;entryPerimeter=0;" edge="1" parent="1">
          <mxGeometry width="50" height="50" relative="1" as="geometry">
            <mxPoint x="575" y="519.43" as="sourcePoint" />
            <mxPoint x="690" y="519.43" as="targetPoint" />
          </mxGeometry>
        </mxCell>
        <mxCell id="765iPjxX5ut2W_0Jc0lx-78" style="edgeStyle=orthogonalEdgeStyle;rounded=0;orthogonalLoop=1;jettySize=auto;html=1;exitX=1;exitY=0.5;exitDx=0;exitDy=0;" edge="1" parent="1" source="765iPjxX5ut2W_0Jc0lx-71">
          <mxGeometry relative="1" as="geometry">
            <mxPoint x="810" y="420.1428571428571" as="targetPoint" />
          </mxGeometry>
        </mxCell>
        <mxCell id="765iPjxX5ut2W_0Jc0lx-71" value="+" style="ellipse;whiteSpace=wrap;html=1;" vertex="1" parent="1">
          <mxGeometry x="750" y="405" width="30" height="30" as="geometry" />
        </mxCell>
        <mxCell id="765iPjxX5ut2W_0Jc0lx-72" value="T&lt;sub&gt;1&lt;/sub&gt;" style="text;html=1;align=center;verticalAlign=middle;whiteSpace=wrap;rounded=0;" vertex="1" parent="1">
          <mxGeometry x="640" y="290" width="60" height="30" as="geometry" />
        </mxCell>
        <mxCell id="765iPjxX5ut2W_0Jc0lx-73" value="T&lt;span style=&quot;font-size: 10px;&quot;&gt;&lt;sub&gt;2&lt;/sub&gt;&lt;/span&gt;" style="text;html=1;align=center;verticalAlign=middle;whiteSpace=wrap;rounded=0;" vertex="1" parent="1">
          <mxGeometry x="365" y="495" width="60" height="30" as="geometry" />
        </mxCell>
        <mxCell id="765iPjxX5ut2W_0Jc0lx-74" value="T&lt;span style=&quot;font-size: 10px;&quot;&gt;&lt;sub&gt;2&lt;/sub&gt;&lt;/span&gt;" style="text;html=1;align=center;verticalAlign=middle;whiteSpace=wrap;rounded=0;" vertex="1" parent="1">
          <mxGeometry x="470" y="495" width="60" height="30" as="geometry" />
        </mxCell>
        <mxCell id="765iPjxX5ut2W_0Jc0lx-75" value="T&lt;span style=&quot;font-size: 10px;&quot;&gt;&lt;sub&gt;2&lt;/sub&gt;&lt;/span&gt;" style="text;html=1;align=center;verticalAlign=middle;whiteSpace=wrap;rounded=0;" vertex="1" parent="1">
          <mxGeometry x="607" y="495" width="60" height="30" as="geometry" />
        </mxCell>
        <mxCell id="765iPjxX5ut2W_0Jc0lx-76" style="edgeStyle=orthogonalEdgeStyle;rounded=0;orthogonalLoop=1;jettySize=auto;html=1;exitX=0;exitY=0;exitDx=0;exitDy=0;entryX=0.996;entryY=0.393;entryDx=0;entryDy=0;entryPerimeter=0;startArrow=classic;startFill=1;endArrow=none;endFill=0;" edge="1" parent="1" source="765iPjxX5ut2W_0Jc0lx-71" target="765iPjxX5ut2W_0Jc0lx-64">
          <mxGeometry relative="1" as="geometry" />
        </mxCell>
        <mxCell id="765iPjxX5ut2W_0Jc0lx-77" style="edgeStyle=orthogonalEdgeStyle;rounded=0;orthogonalLoop=1;jettySize=auto;html=1;exitX=0;exitY=1;exitDx=0;exitDy=0;entryX=1.064;entryY=0.856;entryDx=0;entryDy=0;entryPerimeter=0;startArrow=classic;startFill=1;endArrow=none;endFill=0;" edge="1" parent="1" source="765iPjxX5ut2W_0Jc0lx-71" target="765iPjxX5ut2W_0Jc0lx-64">
          <mxGeometry relative="1" as="geometry" />
        </mxCell>
        <mxCell id="765iPjxX5ut2W_0Jc0lx-79" value="a&lt;sub&gt;new&lt;/sub&gt;" style="text;html=1;align=center;verticalAlign=middle;whiteSpace=wrap;rounded=0;" vertex="1" parent="1">
          <mxGeometry x="794" y="405" width="60" height="30" as="geometry" />
        </mxCell>
        <mxCell id="765iPjxX5ut2W_0Jc0lx-80" value="w&lt;sub&gt;i&lt;/sub&gt;" style="text;html=1;align=center;verticalAlign=middle;whiteSpace=wrap;rounded=0;" vertex="1" parent="1">
          <mxGeometry x="504" y="207" width="60" height="30" as="geometry" />
        </mxCell>
        <mxCell id="765iPjxX5ut2W_0Jc0lx-81" value="Input" style="text;html=1;align=center;verticalAlign=middle;resizable=0;points=[];autosize=1;strokeColor=none;fillColor=none;" vertex="1" parent="1">
          <mxGeometry x="195" y="110" width="50" height="30" as="geometry" />
        </mxCell>
        <mxCell id="765iPjxX5ut2W_0Jc0lx-82" value="Add 1" style="text;html=1;align=center;verticalAlign=middle;resizable=0;points=[];autosize=1;strokeColor=none;fillColor=none;" vertex="1" parent="1">
          <mxGeometry x="337" y="110" width="50" height="30" as="geometry" />
        </mxCell>
        <mxCell id="765iPjxX5ut2W_0Jc0lx-83" value="Add 2" style="text;html=1;align=center;verticalAlign=middle;resizable=0;points=[];autosize=1;strokeColor=none;fillColor=none;" vertex="1" parent="1">
          <mxGeometry x="475" y="110" width="50" height="30" as="geometry" />
        </mxCell>
        <mxCell id="765iPjxX5ut2W_0Jc0lx-84" value="Add 3" style="text;html=1;align=center;verticalAlign=middle;resizable=0;points=[];autosize=1;strokeColor=none;fillColor=none;" vertex="1" parent="1">
          <mxGeometry x="612" y="112" width="50" height="30" as="geometry" />
        </mxCell>
        <mxCell id="765iPjxX5ut2W_0Jc0lx-85" value="Add 4" style="text;html=1;align=center;verticalAlign=middle;resizable=0;points=[];autosize=1;strokeColor=none;fillColor=none;" vertex="1" parent="1">
          <mxGeometry x="740" y="112" width="50" height="30" as="geometry" />
        </mxCell>
      </root>
    </mxGraphModel>
  </diagram>
</mxfile>
